{"title":"Dead Ringers [1988] 720p BRRip x264 [Dual Audio] [Hindi+English","uid":11057679,"size":1453808754,"categoryP":"video","categoryS":"hd___movies","magnet":"?xt=urn:btih:737815573e134418b6e1f6fcd826ddf52a78a025&amp;dn=+Dead+Ringers+%5B1988%5D+720p+BRRip+x264+%5BDual+Audio%5D+%5BHindi%2BEnglish&amp;tr=udp%3A%2F%2Ftracker.openbittorrent.com%3A80&amp;tr=udp%3A%2F%2Fopen.demonii.com%3A1337&amp;tr=udp%3A%2F%2Ftracker.coppersurfer.tk%3A6969&amp;tr=udp%3A%2F%2Fexodus.desync.com%3A6969","seeders":1,"leechers":0,"uploader":null,"files":4,"time":1411134805,"description":" &lt;a href=&quot;http://img210.imageshack.us/img210/5512/exdp.jpg&quot; rel=&quot;nofollow&quot; target=&quot;_NEW&quot;&gt;http://img210.imageshack.us/img210/5512/exdp.jpg&lt;/a&gt;\n &lt;a href=&quot;\nhttp://img210.imageshack.us/img210/848/imdbvg.png&quot; rel=&quot;nofollow&quot; target=&quot;_NEW&quot;&gt;\nhttp://img210.imageshack.us/img210/848/imdbvg.png&lt;/a&gt;\n\n\nRip Information\nCode:\nFormat : Matroska\nFormat version : Version 2\nFile size : 1.34 GiB\nDuration : 1h 50mn\nOverall bit rate : 1 726 Kbps\nMovie name : Dead.Ringers.[1988].720p.BRRip.x264.[Dual Audio].[Hindi+English].by K@rtik [ExD Exclusive]\nEncoded date : UTC 2012-08-06 16:52:19\n\nVideo\nCode:\nFormat : AVC\nFormat/Info : Advanced Video Codec\nFormat profile : &lt;a class=&quot;__cf_email__&quot; href=&quot;/cdn-cgi/l/email-protection&quot; data-cfemail=&quot;4c04252b240c007f627d&quot;&gt;[email&amp;#160;protected]&lt;/a&gt;&lt;script data-cfhash='f9e31' type=&quot;text/javascript&quot;&gt;\n/* &lt;![CDATA[ */!function(){try{var t=&quot;currentScript&quot;in document?document.currentScript:function(){for(var t=document.getElementsByTagName(&quot;script&quot;),e=t.length;e--;)if(t[e].getAttribute(&quot;data-cfhash&quot;))return t[e]}();if(t&amp;&amp;t.previousSibling){var e,r,n,i,c=t.previousSibling,a=c.getAttribute(&quot;data-cfemail&quot;);if(a){for(e=&quot;&quot;,r=parseInt(a.substr(0,2),16),n=2;a.length-n;n+=2)i=parseInt(a.substr(n,2),16)^r,e+=String.fromCharCode(i);e=document.createTextNode(e),c.parentNode.replaceChild(e,c)}t.parentNode.removeChild(t);}}catch(u){}}()/* ]]&gt; */&lt;/script&gt;\nFormat settings, CABAC : Yes\nFormat settings, ReFrames : 4 frames\nMuxing mode : Header stripping\nCodec ID : V_MPEG4/ISO/AVC\nDuration : 1h 50mn\nBit rate : 1 283 Kbps\nWidth : 1 280 pixels\nHeight : 688 pixels\nDisplay aspect ratio : 1.860\nFrame rate : 25.000 fps\nColor space : YUV\nChroma subsampling : 4:2:0\nBit depth : 8 bits\nScan type : Progressive\nBits/(Pixel*Frame) : 0.058\nStream size : 987 MiB (72%)\nTitle : K@rtik\nWriting library : x264 core 125 r2200 999b753\n\nAudio 1\nCode:\normat : AC-3\nFormat/Info : Audio Coding 3\nMode extension : CM (complete main)\nFormat settings, Endianness : Big\nMuxing mode : Header stripping\nCodec ID : A_AC3\nDuration : 1h 50mn\nBit rate mode : Constant\nBit rate : 224 Kbps\nChannel(s) : 2 channels\nChannel positions : Front: L R\nSampling rate : 48.0 KHz\nBit depth : 16 bits\nCompression mode : Lossy\nDelay relative to video : 12s 700ms\nStream size : 178 MiB (13%)\nTitle : K@rtik\n\nAudio 2\nCode:\nFormat : AC-3\nFormat/Info : Audio Coding 3\nMode extension : CM (complete main)\nFormat settings, Endianness : Big\nMuxing mode : Header stripping\nCodec ID : A_AC3\nDuration : 1h 50mn\nBit rate mode : Constant\nBit rate : 224 Kbps\nChannel(s) : 2 channels\nChannel positions : Front: L R\nSampling rate : 48.0 KHz\nBit depth : 16 bits\nCompression mode : Lossy\nStream size : 178 MiB (13%)\nTitle : K@rtik\nLanguage : English","torrent":{"xt":"urn:btih:737815573e134418b6e1f6fcd826ddf52a78a025","amp;dn":"+Dead+Ringers+%5B1988%5D+720p+BRRip+x264+%5BDual+Audio%5D+%5BHindi%2BEnglish","amp;tr":["udp%3A%2F%2Ftracker.openbittorrent.com%3A80","udp%3A%2F%2Fopen.demonii.com%3A1337","udp%3A%2F%2Ftracker.coppersurfer.tk%3A6969","udp%3A%2F%2Fexodus.desync.com%3A6969"],"infoHash":"737815573e134418b6e1f6fcd826ddf52a78a025","infoHashBuffer":{"type":"Buffer","data":[115,120,21,87,62,19,68,24,182,225,246,252,216,38,221,245,42,120,160,37]},"announce":[],"urlList":[]}}